<?xml version="1.0" standalone="no"?>
<!DOCTYPE svg PUBLIC "-//W3C//DTD SVG 20010904//EN"
 "http://www.w3.org/TR/2001/REC-SVG-20010904/DTD/svg10.dtd">
<svg version="1.0" xmlns="http://www.w3.org/2000/svg"
 width="360.000000pt" height="360.000000pt" viewBox="0 0 360.000000 360.000000"
 preserveAspectRatio="xMidYMid meet">

<g transform="translate(0.000000,360.000000) scale(0.100000,-0.100000)"
fill="#000000" stroke="none">
<path d="M700 1795 l0 -1345 1100 0 1100 0 -2 1173 -3 1172 -37 78 c-44 91
-119 172 -196 211 -113 57 -89 56 -1064 56 l-898 0 0 -1345z m1182 1065 c100
-28 178 -135 178 -244 0 -196 -197 -318 -373 -232 -31 15 -70 44 -87 64 -63
77 -76 192 -31 280 25 48 98 115 143 129 44 14 124 15 170 3z m-275 -558 c27
-36 110 -81 165 -88 70 -10 149 18 205 71 26 25 54 45 62 45 28 0 116 -57 151
-96 68 -78 75 -106 78 -332 l3 -202 -468 2 -468 3 0 195 c0 190 1 197 27 251
29 64 88 128 145 158 52 27 76 26 100 -7z m676 -860 l347 -2 0 -80 c0 -57 -4
-80 -12 -80 -7 0 -375 0 -818 0 -443 -1 -811 -1 -817 -1 -9 1 -13 24 -13 81
l0 80 318 2 c321 3 374 3 995 0z m347 -637 l0 -85 -830 0 -830 0 0 78 c0 43 3
82 7 85 3 4 377 7 830 7 l823 0 0 -85z"/>
</g>
</svg>
